<svg width="294" height="336" viewBox="0 0 294 336" fill="none" xmlns="http://www.w3.org/2000/svg">
<path d="M120.8 306.74C155.842 306.74 184.25 290.336 184.25 270.1C184.25 249.864 155.842 233.46 120.8 233.46C85.7575 233.46 57.35 249.864 57.35 270.1C57.35 290.336 85.7575 306.74 120.8 306.74Z" fill="#E0E0E0"/>
<path d="M134.13 231.82C129.91 231.65 128.05 232.07 128.7 236.53C129.36 240.99 129.55 244.43 129.55 244.43C129.55 244.43 137.06 244.65 140.55 242.7C144.03 240.75 140.47 232.07 134.13 231.82Z" fill="#27DEBF"/>
<path opacity="0.5" d="M134.13 231.82C129.91 231.65 128.05 232.07 128.7 236.53C129.36 240.99 129.55 244.43 129.55 244.43C129.55 244.43 137.06 244.65 140.55 242.7C144.03 240.75 140.47 232.07 134.13 231.82Z" fill="black"/>
<path d="M134.81 250.97C134.54 250.97 134.26 250.94 133.98 250.89C131.68 250.44 130.18 248.2 130.63 245.9C131.72 240.36 132.8 236.09 133.75 232.31C135.14 226.81 136.23 222.46 136.9 216.33C137.95 206.73 134.91 197.56 131.72 192.19C130.52 190.17 131.19 187.57 133.21 186.37C135.22 185.17 137.83 185.84 139.03 187.86C140.92 191.04 146.95 202.56 145.35 217.26C144.62 223.98 143.4 228.81 141.99 234.4C141.06 238.07 140.01 242.24 138.96 247.56C138.56 249.58 136.78 250.99 134.8 250.99L134.81 250.97Z" fill="#455A64"/>
<path d="M124.65 256.72C124.65 256.72 124.24 258.5 124.62 259.21C125.21 260.31 128.47 261.66 130.19 262.37C131.91 263.08 133.81 264.13 135.61 267.4C137.54 270.9 141.03 273.28 144.95 274.77C148.86 276.26 154.56 277.03 161.24 275.36C167.93 273.69 168.21 269.66 168.21 269.66C168.21 269.66 168.31 265.88 166.59 265.4C164.86 264.92 124.65 256.72 124.65 256.72Z" fill="#455A64"/>
<path d="M127.35 242.68C127.16 243.87 126.89 245.05 126.54 246.2C125.58 249.37 123.99 252.64 124.65 256.72C125.75 258.68 128.04 259.42 129.76 260.18C132.08 261.21 133.73 261.89 135.39 263.89C138.36 267.48 141.2 272.02 150.18 273.19C159.16 274.36 165.7 271.09 167.17 268.45C168.64 265.82 166.98 263.54 161.1 260.85C158.11 259.49 151.29 253.88 150.51 253.14C149.75 252.42 149.18 251.58 148.59 250.73C147.4 249 146.48 246.81 146.19 244.74C145.92 242.81 146.02 240.31 146.52 237.9C146.63 237.38 146.88 236.85 146.66 236.37C146.09 235.12 144.12 235.45 143.03 235.53C141.4 235.66 139.79 236.01 138.19 236.36C137.67 236.47 137.12 236.6 136.75 236.98C136.39 237.34 136.25 237.86 136.12 238.36C135.92 239.11 135.7 239.86 135.45 240.6C135.28 241.11 135.06 241.67 134.57 241.9C134.09 242.13 133.48 241.94 133.12 241.55C132.76 241.16 132.61 240.61 132.57 240.08C132.54 239.55 132.61 239.02 132.63 238.48C132.65 237.97 132.62 237.43 132.34 237C131.75 236.07 130.26 235.93 129.88 234.89C129.68 234.34 129.9 233.69 130.33 233.28C130.76 232.87 131.35 232.68 131.93 232.62C132.51 232.56 133.05 232.58 133.69 232.59L134 231.36C132.47 231.22 131.3 231.28 129.91 231.87C129.17 232.19 128.35 232.87 128.04 233.64C127.49 234.98 127.82 236.09 127.89 236.7C128.15 239.06 127.72 240.33 127.34 242.67L127.35 242.68Z" fill="#27DEBF"/>
<path opacity="0.35" d="M127.35 242.68C127.16 243.87 126.89 245.05 126.54 246.2C125.58 249.37 123.99 252.64 124.65 256.72C125.75 258.68 128.04 259.42 129.76 260.18C132.08 261.21 133.73 261.89 135.39 263.89C138.36 267.48 141.2 272.02 150.18 273.19C159.16 274.36 165.7 271.09 167.17 268.45C168.64 265.82 166.98 263.54 161.1 260.85C158.11 259.49 151.29 253.88 150.51 253.14C149.75 252.42 149.18 251.58 148.59 250.73C147.4 249 146.48 246.81 146.19 244.74C145.92 242.81 146.02 240.31 146.52 237.9C146.63 237.38 146.88 236.85 146.66 236.37C146.09 235.12 144.12 235.45 143.03 235.53C141.4 235.66 139.79 236.01 138.19 236.36C137.67 236.47 137.12 236.6 136.75 236.98C136.39 237.34 136.25 237.86 136.12 238.36C135.92 239.11 135.7 239.86 135.45 240.6C135.28 241.11 135.06 241.67 134.57 241.9C134.09 242.13 133.48 241.94 133.12 241.55C132.76 241.16 132.61 240.61 132.57 240.08C132.54 239.55 132.61 239.02 132.63 238.48C132.65 237.97 132.62 237.43 132.34 237C131.75 236.07 130.26 235.93 129.88 234.89C129.68 234.34 129.9 233.69 130.33 233.28C130.76 232.87 131.35 232.68 131.93 232.62C132.51 232.56 133.05 232.58 133.69 232.59L134 231.36C132.47 231.22 131.3 231.28 129.91 231.87C129.17 232.19 128.35 232.87 128.04 233.64C127.49 234.98 127.82 236.09 127.89 236.7C128.15 239.06 127.72 240.33 127.34 242.67L127.35 242.68Z" fill="black"/>
<path d="M144.23 271.63C144.23 271.63 143.77 265.26 150.23 261.39C156.69 257.52 160.89 259.45 163.04 260.79C165.59 262.38 169.32 265.81 167.39 268.61C165.3 271.63 161.73 273.24 154.92 273.78C148.1 274.32 144.24 271.63 144.24 271.63H144.23Z" fill="#FAFAFA"/>
<path d="M135.33 248.41C135.57 248.43 135.81 248.35 135.97 248.17C136.86 247.21 142.26 243.94 146.36 245.63C146.46 245.48 146.63 244.48 146.13 244.17C140.6 242.78 135.88 246.03 134.81 247.19C134.53 247.49 134.56 247.96 134.88 248.23C135.01 248.34 135.16 248.4 135.32 248.42L135.33 248.41Z" fill="#FAFAFA"/>
<path d="M148.07 249.95C148.08 249.24 147.66 248.6 147.41 248.42C142.75 247.75 138.07 250.68 137.05 251.79C136.77 252.09 136.8 252.56 137.12 252.83C137.25 252.94 137.4 253 137.56 253.01C137.8 253.03 138.04 252.95 138.2 252.77C139.06 251.84 144.38 248.75 148.06 249.94L148.07 249.95Z" fill="#FAFAFA"/>
<path d="M155.13 256.87C155.06 256.39 154.12 255.67 153.33 255.47C148.18 255.12 143.83 259.04 142.98 260.34C142.75 260.69 142.86 261.14 143.22 261.35C143.37 261.44 143.53 261.47 143.69 261.46C143.93 261.44 144.15 261.32 144.28 261.12C145.03 259.97 150.24 255.57 155.12 256.87H155.13Z" fill="#FAFAFA"/>
<path d="M140.24 257.5C140.48 257.5 140.71 257.38 140.85 257.18C141.61 256.13 146.12 252.18 150.77 253.37C150.8 252.96 149.95 252.16 149.53 252.04C144.91 251.62 140.46 255.11 139.58 256.34C139.34 256.67 139.43 257.13 139.78 257.36C139.92 257.45 140.08 257.5 140.24 257.49V257.5Z" fill="#FAFAFA"/>
<path d="M87.21 246.57C83.01 246.22 81.12 246.57 81.59 251.05C82.06 255.54 82.1 258.97 82.1 258.97C82.1 258.97 89.6 259.5 93.16 257.71C96.72 255.91 93.53 247.09 87.21 246.57Z" fill="#27DEBF"/>
<path opacity="0.5" d="M87.21 246.57C83.01 246.22 81.12 246.57 81.59 251.05C82.06 255.54 82.1 258.97 82.1 258.97C82.1 258.97 89.6 259.5 93.16 257.71C96.72 255.91 93.53 247.09 87.21 246.57Z" fill="black"/>
<path d="M87.08 265.74C86.81 265.73 86.53 265.69 86.26 265.62C83.98 265.07 82.58 262.77 83.13 260.49C84.45 255 85.71 250.78 86.82 247.04C88.44 241.6 89.72 237.3 90.64 231.2C92.09 221.65 89.44 212.37 86.48 206.86C85.37 204.79 86.14 202.22 88.21 201.11C90.27 200 92.85 200.77 93.96 202.84C95.71 206.1 101.26 217.86 99.04 232.48C98.03 239.16 96.61 243.94 94.96 249.46C93.88 253.09 92.66 257.21 91.38 262.48C90.9 264.49 89.06 265.81 87.08 265.73V265.74Z" fill="#455A64"/>
<path d="M76.68 271.05C76.68 271.05 76.2 272.81 76.55 273.53C77.09 274.66 80.3 276.14 81.99 276.92C83.68 277.7 85.53 278.83 87.19 282.18C88.97 285.76 92.36 288.28 96.21 289.93C100.05 291.58 105.71 292.59 112.47 291.2C119.22 289.81 119.67 285.8 119.67 285.8C119.67 285.8 119.93 282.03 118.23 281.48C116.53 280.93 76.69 271.04 76.69 271.04L76.68 271.05Z" fill="#455A64"/>
<path d="M79.97 257.14C79.73 258.32 79.41 259.48 79.01 260.62C77.91 263.75 76.19 266.94 76.68 271.05C77.7 273.05 79.96 273.89 81.64 274.72C83.91 275.84 85.54 276.59 87.11 278.66C89.93 282.37 92.57 287.03 101.5 288.57C110.43 290.11 117.1 287.12 118.68 284.55C120.26 281.98 118.7 279.64 112.93 276.7C110 275.21 103.42 269.32 102.67 268.55C101.94 267.8 101.41 266.94 100.86 266.06C99.74 264.28 98.92 262.05 98.71 259.98C98.52 258.04 98.72 255.55 99.32 253.16C99.45 252.65 99.73 252.12 99.53 251.64C99.01 250.36 97.03 250.61 95.94 250.65C94.3 250.71 92.68 250.99 91.07 251.27C90.55 251.36 89.99 251.47 89.6 251.82C89.22 252.16 89.06 252.68 88.91 253.17C88.68 253.91 88.42 254.65 88.15 255.38C87.96 255.89 87.71 256.43 87.21 256.65C86.72 256.86 86.12 256.65 85.77 256.24C85.42 255.83 85.29 255.28 85.28 254.75C85.27 254.22 85.36 253.69 85.4 253.16C85.44 252.65 85.43 252.11 85.17 251.67C84.62 250.72 83.13 250.51 82.8 249.46C82.62 248.9 82.87 248.26 83.32 247.87C83.76 247.48 84.36 247.32 84.95 247.28C85.54 247.24 86.07 247.28 86.71 247.33L87.07 246.11C85.55 245.91 84.37 245.91 82.97 246.45C82.22 246.74 81.37 247.39 81.03 248.13C80.43 249.45 80.71 250.57 80.75 251.19C80.91 253.56 80.42 254.81 79.95 257.13L79.97 257.14Z" fill="#27DEBF"/>
<path opacity="0.35" d="M79.97 257.14C79.73 258.32 79.41 259.48 79.01 260.62C77.91 263.75 76.19 266.94 76.68 271.05C77.7 273.05 79.96 273.89 81.64 274.72C83.91 275.84 85.54 276.59 87.11 278.66C89.93 282.37 92.57 287.03 101.5 288.57C110.43 290.11 117.1 287.12 118.68 284.55C120.26 281.98 118.7 279.64 112.93 276.7C110 275.21 103.42 269.32 102.67 268.55C101.94 267.8 101.41 266.94 100.86 266.06C99.74 264.28 98.92 262.05 98.71 259.98C98.52 258.04 98.72 255.55 99.32 253.16C99.45 252.65 99.73 252.12 99.53 251.64C99.01 250.36 97.03 250.61 95.94 250.65C94.3 250.71 92.68 250.99 91.07 251.27C90.55 251.36 89.99 251.47 89.6 251.82C89.22 252.16 89.06 252.68 88.91 253.17C88.68 253.91 88.42 254.65 88.15 255.38C87.96 255.89 87.71 256.43 87.21 256.65C86.72 256.86 86.12 256.65 85.77 256.24C85.42 255.83 85.29 255.28 85.28 254.75C85.27 254.22 85.36 253.69 85.4 253.16C85.44 252.65 85.43 252.11 85.17 251.67C84.62 250.72 83.13 250.51 82.8 249.46C82.62 248.9 82.87 248.26 83.32 247.87C83.76 247.48 84.36 247.32 84.95 247.28C85.54 247.24 86.07 247.28 86.71 247.33L87.07 246.11C85.55 245.91 84.37 245.91 82.97 246.45C82.22 246.74 81.37 247.39 81.03 248.13C80.43 249.45 80.71 250.57 80.75 251.19C80.91 253.56 80.42 254.81 79.95 257.13L79.97 257.14Z" fill="black"/>
<path d="M95.62 286.77C95.62 286.77 95.43 280.38 102.04 276.79C108.65 273.2 112.78 275.3 114.86 276.73C117.34 278.43 120.93 282.01 118.87 284.72C116.65 287.65 113.02 289.11 106.19 289.36C99.36 289.61 95.61 286.76 95.61 286.76L95.62 286.77Z" fill="#FAFAFA"/>
<path d="M87.7 263.2C87.93 263.23 88.18 263.16 88.35 262.99C89.28 262.07 94.82 259.03 98.84 260.88C98.94 260.73 99.16 259.74 98.67 259.42C93.2 257.8 88.35 260.85 87.23 261.96C86.94 262.25 86.95 262.72 87.26 263C87.38 263.12 87.54 263.18 87.69 263.2H87.7Z" fill="#FAFAFA"/>
<path d="M100.37 265.27C100.41 264.56 100.02 263.91 99.78 263.72C95.16 262.86 90.35 265.59 89.28 266.65C88.99 266.94 89 267.41 89.31 267.69C89.43 267.81 89.59 267.87 89.74 267.89C89.97 267.92 90.22 267.85 90.39 267.68C91.29 266.78 96.73 263.92 100.36 265.27H100.37Z" fill="#FAFAFA"/>
<path d="M107.13 272.49C107.08 272.01 106.17 271.25 105.39 271.02C100.26 270.45 95.75 274.19 94.85 275.45C94.61 275.79 94.7 276.24 95.05 276.47C95.19 276.56 95.35 276.6 95.51 276.6C95.75 276.6 95.98 276.48 96.12 276.28C96.92 275.16 102.3 270.99 107.13 272.49Z" fill="#FAFAFA"/>
<path d="M92.23 272.49C92.47 272.49 92.7 272.39 92.85 272.2C93.65 271.19 98.33 267.42 102.92 268.81C102.97 268.4 102.15 267.56 101.74 267.43C97.14 266.82 92.55 270.12 91.61 271.31C91.35 271.63 91.42 272.1 91.76 272.34C91.9 272.44 92.06 272.49 92.22 272.49H92.23Z" fill="#FAFAFA"/>
<path d="M195.61 172.85C191.55 172.85 186.49 171.43 180.87 167.59C179.49 166.64 179.13 164.76 180.08 163.37C181.03 161.99 182.91 161.63 184.3 162.58C191.87 167.75 197.28 167.14 199.28 165.97C200.09 165.49 200.7 164.37 200.93 162.88C201.4 159.91 200.42 155.06 196.24 150.35C187.4 140.37 176.31 135.23 159.16 133.19C157.5 132.99 156.31 131.48 156.51 129.82C156.71 128.16 158.21 126.96 159.88 127.17C178.39 129.38 191.01 135.29 200.79 146.33C205.53 151.68 207.82 158.23 206.92 163.84C206.39 167.17 204.76 169.79 202.34 171.21C200.64 172.2 198.35 172.85 195.61 172.85Z" fill="#455A64"/>
<path d="M157.23 95.03C161.82 90.71 165.86 77.99 163.78 64.63C161.69 51.27 149.35 38.77 144.43 36.07C139.51 33.37 136.05 36.86 137.39 41.84C139.21 48.62 141.48 63.86 128.83 70.57C128.83 70.57 130.7 80.52 137.22 88.42C143.74 96.32 157.23 95.02 157.23 95.02V95.03Z" fill="#27DEBF"/>
<path opacity="0.75" d="M157.23 95.03C161.82 90.71 165.86 77.99 163.78 64.63C161.69 51.27 149.35 38.77 144.43 36.07C139.51 33.37 136.05 36.86 137.39 41.84C139.21 48.62 141.48 63.86 128.83 70.57C128.83 70.57 130.7 80.52 137.22 88.42C143.74 96.32 157.23 95.02 157.23 95.02V95.03Z" fill="white"/>
<path d="M140.07 44.47C138.95 44.47 137.85 44.31 136.83 43.98C136.51 43.88 136.33 43.54 136.44 43.22C136.54 42.9 136.88 42.72 137.2 42.83C141.18 44.1 146.55 42.62 147.9 38.46C148 38.14 148.34 37.97 148.66 38.07C148.98 38.17 149.15 38.52 149.05 38.83C147.84 42.57 143.89 44.47 140.07 44.47Z" fill="#27DEBF"/>
<path d="M144.62 52.86C141.21 52.86 138.85 51.52 137.94 51C137.65 50.83 137.55 50.46 137.71 50.17C137.87 49.88 138.25 49.78 138.54 49.94C140.41 51 143.37 52.29 147.54 51.29C153.06 49.96 154.24 46.73 154.49 45.4C154.55 45.07 154.87 44.86 155.2 44.92C155.53 44.98 155.75 45.3 155.68 45.63C155.39 47.19 154.03 50.98 147.82 52.48C146.67 52.76 145.6 52.87 144.62 52.87V52.86Z" fill="#27DEBF"/>
<path d="M150.9 63.38H150.85C143.72 63.37 139.31 59.8 137.31 57.68C137.08 57.44 137.09 57.05 137.34 56.82C137.58 56.59 137.97 56.6 138.2 56.85C140.06 58.83 144.19 62.15 150.86 62.17H150.91C158.7 62.17 161.02 58.51 162.01 56.95C162.19 56.67 162.57 56.58 162.85 56.76C163.13 56.94 163.22 57.31 163.04 57.6C162.04 59.19 159.38 63.39 150.92 63.39L150.9 63.38Z" fill="#27DEBF"/>
<path d="M154.08 75.59C151.85 75.59 149.45 75.26 146.99 74.43C141.25 72.5 137.11 69.17 134.67 64.54C134.51 64.24 134.63 63.88 134.92 63.72C135.21 63.57 135.58 63.68 135.74 63.97C138.05 68.37 141.86 71.42 147.37 73.27C154.98 75.83 162.24 73.28 164.26 71.42C164.51 71.19 164.89 71.21 165.12 71.45C165.35 71.7 165.33 72.08 165.09 72.31C163.5 73.78 159.28 75.58 154.07 75.58L154.08 75.59Z" fill="#27DEBF"/>
<path opacity="0.1" d="M138.74 84.19C149.62 71.76 145.42 52.17 142.74 46.55C138.97 38.65 140.57 35.18 143.86 35.8C139.25 33.66 136.1 37.06 137.38 41.85C139.2 48.63 141.47 63.87 128.82 70.58C128.82 70.58 130.46 79.29 136 86.88C136.91 86.11 137.82 85.23 138.73 84.2L138.74 84.19Z" fill="black"/>
<path d="M167.22 168.81C163.52 159.8 161.68 134.91 162.44 118.54C164.92 118.02 167.95 114.64 166.73 110.27C165.63 106.34 164.56 105.82 161.25 101.58C158.88 98.55 157.24 94.55 155.12 91.3C147.85 80.16 138.59 72.73 124.98 69.52C122.64 68.97 121.24 66.56 121.91 64.25C122.78 61.26 123.52 57.33 122.61 54.45C120.92 49.13 117.57 48.59 115.34 49.58C113.11 50.56 112.95 52.77 113.62 56.35C114.29 59.92 113.24 60.54 112.05 60.16C110.86 59.78 109.98 53.29 101.67 50.24C93.36 47.19 87.75 51.19 87.88 54.62C88.03 58.36 90.75 58.65 96.52 59.28C98.97 59.55 101.58 60.58 103.23 62.26C105.55 64.62 104.26 68.6 101.04 69.32C79.91 74.03 63.5 91.64 58.86 115.4C58.16 119.03 57.67 123.41 57.38 128.3C57.38 128.3 55.26 124.32 50.72 123.2C46.64 122.2 45.02 124.15 45.08 125.97C45.13 127.79 47.41 128.66 49.7 129.61C53.37 131.13 53.97 132.54 53.97 132.54C53.97 132.54 50.8 132 48.29 133.11C45.78 134.22 45.12 136.93 47.55 137.97C48.91 138.55 50.97 137.51 53.1 137.02C54.44 136.71 56.92 136.22 57.06 137.83C57.01 141.59 57.04 145.53 57.15 149.57C57.46 160.98 59.46 168.79 57.63 179.14C56.25 186.98 49.39 193.18 56.28 199.65C59.36 202.54 62.96 202.77 65.78 202.28C68.09 201.88 70.25 203.31 70.78 205.6C71.55 208.86 73.9 212.81 80.54 214.57C86.67 216.19 90.59 214.33 92.98 212.05C94.71 210.4 97.47 210.38 99.01 212.22C101.56 215.27 106.29 218.54 114.84 218.49C123.37 218.45 127.69 214.74 129.83 211.58C131.09 209.72 133.55 209.04 135.48 210.19C138.73 212.11 143.95 213.65 150.45 210.19C155.28 207.61 156.53 202.98 156.65 199.22C156.73 196.76 158.95 194.83 161.39 195.2C165.12 195.77 168.92 194.8 171.48 190.92C176.1 183.94 170.58 176.92 167.25 168.8L167.22 168.81Z" fill="#27DEBF"/>
<g opacity="0.1">
<path d="M49.69 129.62C53.36 131.14 53.96 132.55 53.96 132.55C53.96 132.55 50.79 132.01 48.28 133.12C45.77 134.23 45.11 136.94 47.54 137.98C48.9 138.56 50.96 137.52 53.09 137.03C54.43 136.72 56.91 136.23 57.05 137.84C57 141.6 57.03 145.54 57.14 149.58C57.45 160.99 59.45 168.8 57.62 179.15C56.24 186.99 49.38 193.19 56.27 199.66C57.89 201.18 59.64 201.95 61.36 202.28C61.15 202.17 57.93 196.98 61.73 189.51C67.07 179.01 66.74 172.43 65.34 151.15C63.63 125.11 66.82 113.98 76.27 95.58C85.95 76.72 101.36 75.81 107.9 70.81C111.45 68.09 110.24 63.16 107.13 60.03C104.52 57.4 100.44 56.34 98.03 56.09C92.76 55.54 87.87 54.63 88.86 52C88.19 52.83 87.84 53.75 87.87 54.63C88.02 58.37 90.74 58.66 96.51 59.29C98.96 59.56 101.57 60.59 103.22 62.27C105.54 64.63 104.25 68.61 101.03 69.33C79.9 74.04 63.49 91.65 58.85 115.41C58.15 119.04 57.66 123.42 57.37 128.31C57.37 128.31 55.25 124.33 50.71 123.21C46.63 122.21 45.01 124.16 45.07 125.98C45.12 127.8 47.4 128.67 49.69 129.62Z" fill="black"/>
<path d="M76.27 205.71C73.58 202.18 71.42 201.6 67.69 202.38C67.69 202.38 67.68 202.38 67.67 202.38C69.17 202.78 70.39 203.97 70.77 205.6C71.54 208.86 73.89 212.81 80.53 214.57C84.86 215.71 88.08 215.12 90.44 213.87C80.85 215.96 78.96 209.24 76.27 205.71Z" fill="black"/>
<path d="M122.34 217.27C117.61 217.89 113.18 216.82 108.2 213.18C102.83 209.25 100.21 209.61 96.88 210.94C97.67 211.12 98.41 211.54 98.98 212.22C101.53 215.27 106.26 218.54 114.81 218.49C117.82 218.48 120.29 218 122.34 217.26V217.27Z" fill="black"/>
<path d="M115.81 54.79C115.63 51.64 117.64 49.25 120.12 50.29C118.54 48.94 116.71 48.97 115.33 49.58C113.1 50.56 112.94 52.77 113.61 56.35C114.28 59.92 113.23 60.54 112.04 60.16C111.86 60.1 111.69 59.9 111.5 59.61C112.41 61.64 113.31 63.66 115.39 62.53C117.47 61.4 115.99 57.95 115.81 54.79Z" fill="black"/>
</g>
<path opacity="0.2" d="M95.69 126.89C95.69 126.89 96.84 131.78 102.2 131.71C107.55 131.64 108.14 129.21 110.33 125.9C112.52 122.58 117.22 121.84 121.31 121.77C125.4 121.7 129.22 117.06 127.03 112.37C127.03 112.37 127.59 115.72 124.31 117.86C121.03 120 116.68 118.07 112.38 120.13C108.08 122.19 107.72 126.81 104.56 128.28C101.41 129.75 97.58 128.63 95.68 126.91L95.69 126.89Z" fill="black"/>
<path d="M120.75 124.12C120.28 128.53 116.32 131.71 111.91 131.23C109.3 130.95 107.12 129.45 105.88 127.35C108 125.37 108.81 121.95 112.39 120.12C115.22 118.68 117.37 119.33 119.73 119.27C120.54 120.69 120.94 122.38 120.75 124.13V124.12Z" fill="#455A64"/>
<path d="M93.99 124.43C94.97 126.65 97.24 129.29 102.4 128.84C107.8 128.37 107.37 122.66 112.38 120.11C116.97 117.77 119.78 120.94 124.59 117.66C128.93 114.7 126.47 108.85 124.84 107.65" stroke="#455A64" stroke-width="1.21" stroke-miterlimit="10" stroke-linecap="round"/>
<path d="M118.66 123.24C118.64 124.46 117.65 125.43 116.43 125.42C115.21 125.4 114.24 124.41 114.25 123.19C114.27 121.97 115.26 121 116.48 121.01C117.7 121.03 118.67 122.02 118.66 123.24Z" fill="#F5F5F5"/>
<path opacity="0.2" d="M162.44 118.81L161.91 118.54C161.91 118.54 160.03 118.41 158.96 117.42C157.89 116.43 156.69 113.19 153.26 112.36C149.84 111.53 147.92 113.2 144.13 113.36C140.34 113.52 139.06 110.9 138.3 108.7C137.9 112.43 138.95 114.93 141.66 116.03C144.66 117.25 150.09 114.69 152.41 116.03C154.73 117.37 156.07 120.14 158.96 120.46C160.63 120.65 161.75 120.19 162.41 119.77C162.42 119.45 162.43 119.13 162.45 118.82L162.44 118.81Z" fill="black"/>
<path d="M158.95 117.42C158.02 121.06 154.53 123.57 150.67 123.16C146.45 122.7 143.39 118.9 143.85 114.68C143.9 114.23 143.98 113.78 144.12 113.36C146.94 113.29 149.51 111.33 153.26 112.36C156.56 113.27 156.78 115.88 158.95 117.42Z" fill="#455A64"/>
<path d="M138.43 106.17C137.66 108.32 138.68 111.11 140.88 112.44C145.24 115.08 148.14 110.94 153.25 112.35C157.08 113.41 156.77 116.72 160.13 118.06C160.78 118.32 161.81 118.56 162.45 118.53" stroke="#455A64" stroke-width="1.21" stroke-miterlimit="10" stroke-linecap="round"/>
<path d="M155.62 117.01C155.61 118.15 154.67 119.06 153.54 119.04C152.41 119.02 151.49 118.09 151.51 116.96C151.53 115.83 152.46 114.91 153.59 114.93C154.73 114.94 155.64 115.88 155.62 117.01Z" fill="#F5F5F5"/>
<path d="M131.36 134.1C120.97 138.75 111.84 147.94 107.62 158.07C105.02 164.32 106.44 169.51 109.92 170.69C116.8 173.01 124.51 162.29 132.17 158.55C139.76 154.85 146.08 158.42 149.97 155.92C154.55 152.97 153.88 145.44 151.42 140.07C148.68 134.08 141.75 129.45 131.35 134.09L131.36 134.1Z" fill="#455A64"/>
<path d="M149.71 156.07C145.9 142.82 133.46 138.7 120.84 140.69C115.05 145.47 110.32 151.57 107.61 158.07C105.01 164.32 106.43 169.51 109.91 170.69C116.79 173.01 124.5 162.29 132.16 158.55C139.59 154.93 145.79 158.26 149.7 156.06L149.71 156.07Z" fill="#F28F8F"/>
<path opacity="0.1" d="M141.5 156.76C128.73 153.33 120.49 164.3 116.46 164.2C112.42 164.1 110.47 160.57 116.07 151.61C121.62 142.73 133.68 140.22 138.92 142.83C133.69 140.25 127.3 139.66 120.85 140.68C115.06 145.46 110.33 151.56 107.62 158.06C105.02 164.31 106.44 169.5 109.92 170.68C116.8 173 124.51 162.28 132.17 158.54C135.57 156.88 138.71 156.68 141.5 156.74V156.76Z" fill="black"/>
<path d="M146.4 144.08C143.94 145.15 143.97 148.42 141.94 155.37C141.8 155.86 141.66 156.32 141.52 156.77C144.94 156.85 147.83 157.31 149.97 155.93C150.41 155.65 150.79 155.31 151.14 154.95C151.64 149.68 149 142.96 146.4 144.09V144.08Z" fill="#F5F5F5"/>
<path d="M151.15 154.94C151.21 154.33 151.22 153.7 151.2 153.06C150.54 153.91 149.5 154.74 148.34 154.97C146.47 155.34 144.39 154.97 144.39 154.97C144.39 154.97 145.03 150.91 145.67 147.42C146.09 145.08 147.5 144.06 148.61 144.87C147.92 144.1 147.17 143.75 146.41 144.08C143.95 145.15 143.98 148.42 141.95 155.37C141.81 155.86 141.67 156.32 141.53 156.77C144.95 156.85 147.84 157.31 149.98 155.93C150.42 155.65 150.8 155.31 151.15 154.95V154.94Z" fill="#E0E0E0"/>
<path d="M120.01 152.71C117.55 153.78 117.58 157.05 115.55 164C114.66 167.04 113.9 169.28 113.31 170.88C116.98 170.17 120.83 166.87 124.74 163.7C125.29 158.41 122.63 151.57 120 152.71H120.01Z" fill="#F5F5F5"/>
<path d="M124.75 163.7C124.84 162.86 124.84 161.97 124.77 161.09C120.88 163.61 118.54 166.31 117.93 165.97C117.31 165.63 117.84 162.9 118.11 159.89C118.43 156.26 118.88 152.5 121.29 152.77C120.87 152.57 120.44 152.52 120.01 152.71C117.55 153.78 117.58 157.05 115.55 164C114.66 167.04 113.9 169.28 113.31 170.88C116.98 170.17 120.83 166.87 124.74 163.7H124.75Z" fill="#E0E0E0"/>
<path d="M35.3 197.84C34.98 197.84 34.66 197.79 34.34 197.68C32.75 197.15 31.89 195.43 32.43 193.84C40.51 169.75 52.38 159.57 68.92 150.95C70.4 150.17 72.24 150.75 73.01 152.24C73.79 153.73 73.21 155.56 71.72 156.33C56.13 164.45 45.65 173.51 38.18 195.76C37.75 197.03 36.57 197.83 35.3 197.83V197.84Z" fill="#455A64"/>
<path d="M33.17 191.68C31.9 194.98 29.96 196.32 28.11 198.26C26.26 200.2 24.27 201.39 22.33 204.44C20.39 207.49 19.49 212.63 20.07 215.04C20.4 216.4 22.28 216.42 22.39 215.22C22.8 210.79 23.54 206.97 26.65 204.59C26.65 204.59 24.54 208.87 24.26 212.77C23.98 216.67 24.49 221.33 26.11 221.56C27.73 221.79 27.66 220.14 27.44 217.79C27.21 215.45 27 209.24 30.13 204.81C30.13 204.81 29.02 211.35 30.13 215.52C31.24 219.69 33.41 222.68 34.6 222.17C35.8 221.66 35.74 220.86 34.44 217.65C33.43 215.16 33.48 212 33.74 209.32C34 206.59 34.63 204.68 36.46 202.78C37.26 201.95 38.1 201.49 38.77 201.3C39.53 201.08 40.83 201.52 41.53 202.2C42.66 203.3 43.65 204.68 43.96 206.96C44.25 209.06 47.72 209.25 46.42 203.35C45.12 197.45 37.86 196.41 39.68 191.59L33.17 191.67V191.68Z" fill="#455A64"/>
<path d="M184.22 169.59L186.98 164.23C182.69 161.99 187.6 155.4 185.11 149.88C182.62 144.36 179.96 146.59 180.98 148.45C182.09 150.46 182.3 152.21 181.87 153.72C181.45 155.19 180.5 156.04 179.48 155.18C178.46 154.31 177.82 151.45 174.11 148.3C170.74 145.44 167.55 144.89 166.16 144.88C163.26 144.88 164.28 146.89 165.68 147.45C171.67 149.85 172.41 151.18 173.92 153.14C175.43 155.1 175.23 156.23 174.44 155.99C173.65 155.75 172.48 154.06 168.82 152.38C165.16 150.7 161.12 150.71 160.48 151.48C159.84 152.25 159.92 153.24 161.66 153.65C163.4 154.07 167.07 154.98 169.07 156.14C171.62 157.61 172.78 159.51 172.36 160.07C171.94 160.63 169.76 159.08 166.44 158.47C163.12 157.86 161.41 157.86 160.04 158.39C159.02 158.79 159.38 160.84 162.43 160.98C164.89 161.1 168.91 162.29 171.15 163.81C172.4 164.66 174.06 165.82 176.21 166.76C178.56 167.78 179.98 168.22 184.21 169.59H184.22Z" fill="#455A64"/>
<path d="M84.93 88.63C88.44 90.47 94.07 100.05 87.17 110.24C80.27 120.43 70.5 120.06 66.02 119.29C63.22 117.93 48.57 111.58 47.84 91.31C47.12 71.04 59.59 63.29 62.71 61.5C65.83 59.71 72.05 59.16 71.28 66.1C70.51 73.04 69.78 79.2 74.82 83.66C78.77 87.16 84.93 88.63 84.93 88.63Z" fill="#27DEBF"/>
<path opacity="0.75" d="M84.93 88.63C88.44 90.47 94.07 100.05 87.17 110.24C80.27 120.43 70.5 120.06 66.02 119.29C63.22 117.93 48.57 111.58 47.84 91.31C47.12 71.04 59.59 63.29 62.71 61.5C65.83 59.71 72.05 59.16 71.28 66.1C70.51 73.04 69.78 79.2 74.82 83.66C78.77 87.16 84.93 88.63 84.93 88.63Z" fill="white"/>
<path d="M58.67 114.98C58.09 114.98 57.59 114.95 57.2 114.91C56.87 114.87 56.63 114.57 56.66 114.24C56.7 113.91 57 113.67 57.33 113.7C60.38 114.03 69.68 113.35 76.1 106.34C82.68 99.16 82.94 92.18 82 87.58C81.93 87.25 82.14 86.93 82.47 86.86C82.79 86.79 83.12 87 83.19 87.33C84.19 92.2 83.92 99.6 77 107.15C71.07 113.62 62.79 114.97 58.68 114.97L58.67 114.98Z" fill="#27DEBF"/>
<path d="M54.96 101.6C51.29 101.6 48.57 101.01 48.34 100.96C48.01 100.89 47.81 100.56 47.88 100.24C47.95 99.91 48.28 99.71 48.61 99.78C49.07 99.88 59.94 102.24 67.74 97.02C74.8 92.29 75.41 86.57 75.67 84.13C75.71 83.8 76.02 83.56 76.34 83.59C76.67 83.63 76.91 83.92 76.88 84.26C76.62 86.64 75.94 92.98 68.41 98.02C64.12 100.9 58.97 101.6 54.96 101.6Z" fill="#27DEBF"/>
<path d="M57.86 85.44C52.63 85.44 49.21 83.79 47.48 82.66C47.2 82.48 47.12 82.1 47.31 81.82C47.49 81.54 47.87 81.46 48.15 81.64C50.17 82.96 54.63 85.02 61.86 83.91C67.57 83.04 70.04 81.2 71.86 79.35C72.09 79.11 72.48 79.11 72.72 79.35C72.96 79.58 72.96 79.97 72.72 80.21C70.75 82.21 68.09 84.2 62.03 85.12C60.53 85.35 59.14 85.45 57.85 85.45L57.86 85.44Z" fill="#27DEBF"/>
<path d="M64.22 73.75C63.09 73.75 61.87 73.61 60.56 73.27C57.35 72.43 54.95 70.6 53.63 67.96C53.48 67.66 53.6 67.3 53.9 67.15C54.2 67 54.56 67.12 54.72 67.42C55.9 69.77 57.97 71.35 60.87 72.1C65.39 73.28 68.81 71.88 70.89 70.5C71.17 70.31 71.55 70.39 71.73 70.67C71.92 70.95 71.84 71.33 71.56 71.51C69.88 72.63 67.39 73.76 64.22 73.76V73.75Z" fill="#27DEBF"/>
<path opacity="0.1" d="M73.93 112.06C69.51 111.66 63.97 110.4 59.18 103.06C54.39 95.71 52.9 80.41 57.27 71.18C60.15 65.11 65.9 59.55 70.05 61.41C68.2 59.68 64.78 60.31 62.71 61.5C59.59 63.3 47.12 71.05 47.84 91.31C48.56 111.58 63.22 117.93 66.02 119.29C70.5 120.06 80.27 120.43 87.17 110.24C91.79 103.42 90.79 96.87 88.57 92.73C92.04 103.6 80.5 112.65 73.93 112.05V112.06Z" fill="black"/>
<path d="M83 109.96C83 109.96 77.79 115.71 77.74 121.24C77.72 124.04 79.74 126.6 83 126.6C86.26 126.6 88.28 124.04 88.26 121.24C88.21 115.71 83 109.96 83 109.96Z" fill="#FAFAFA"/>
<path d="M261.56 18.15L197.08 55.33C196.41 55.72 195.87 56.66 195.87 57.43V97.97C195.87 98.74 196.42 99.68 197.09 100.06L201.44 102.5C202.11 102.88 203.2 102.88 203.87 102.49L268.35 65.31C269.02 64.92 269.56 63.98 269.56 63.21V22.67C269.56 21.9 269.01 20.96 268.34 20.58L263.99 18.14C263.32 17.76 262.23 17.76 261.56 18.15Z" fill="#27DEBF"/>
<path d="M202.66 101.79V61.25C202.66 60.48 203.2 59.54 203.87 59.15L268.35 21.97C269.02 21.58 269.56 21.9 269.56 22.67V63.2C269.56 63.97 269.02 64.91 268.35 65.3L203.87 102.48C203.2 102.87 202.66 102.55 202.66 101.78V101.79Z" fill="#27DEBF"/>
<path opacity="0.2" d="M203.87 102.49C203.15 102.9 202.04 102.88 201.43 102.5L197.09 100.06C196.42 99.68 195.87 98.75 195.87 97.97V57.43C195.87 57.03 196.02 56.58 196.26 56.19L203.02 60.05C202.8 60.43 202.66 60.86 202.66 61.24V101.77C202.66 102.48 203.16 102.89 203.87 102.47V102.49Z" fill="black"/>
<path opacity="0.4" d="M269.55 22.45C269.45 21.84 268.96 21.62 268.35 21.97L203.87 59.15C203.53 59.35 203.23 59.68 203.01 60.06L196.24 56.2C196.46 55.84 196.75 55.52 197.08 55.34L261.56 18.16C262.23 17.77 263.31 17.77 263.99 18.15L268.33 20.59C268.94 20.94 269.45 21.74 269.54 22.46L269.55 22.45Z" fill="white"/>
<path d="M195.87 71.84L186.11 81.77C185.59 82.3 185.77 83.09 186.29 83.43C186.49 83.56 193.05 87.32 193.05 87.32L202.66 75.75L195.87 71.84Z" fill="#27DEBF"/>
<path opacity="0.1" d="M195.87 71.84L186.11 81.77C185.59 82.3 185.77 83.09 186.29 83.43C186.49 83.56 193.05 87.32 193.05 87.32L202.66 75.75L195.87 71.84Z" fill="black"/>
<path d="M202.66 75.75L192.9 85.68C192.18 86.41 192.8 87.64 193.82 87.5L202.67 86.22C203.62 86.22 203.62 75.75 202.67 75.75H202.66Z" fill="#27DEBF"/>
<path d="M210.56 72.47C210.6 71.34 210.76 70.2 211.03 69.06C211.31 67.92 211.7 66.84 212.21 65.82C212.72 64.8 213.34 63.87 214.06 63.02C214.79 62.17 215.63 61.48 216.58 60.93C217.52 60.39 218.36 60.12 219.09 60.12C219.82 60.12 220.45 60.34 220.95 60.77C221.46 61.2 221.85 61.83 222.13 62.65C222.41 63.47 222.56 64.43 222.6 65.51C222.63 66.35 222.64 67.23 222.64 68.16C222.64 69.09 222.63 69.97 222.6 70.8C222.56 71.93 222.4 73.07 222.13 74.21C221.85 75.35 221.46 76.44 220.95 77.46C220.44 78.49 219.82 79.42 219.09 80.26C218.36 81.1 217.52 81.79 216.58 82.33C215.63 82.88 214.79 83.16 214.06 83.16C213.33 83.16 212.71 82.95 212.21 82.51C211.7 82.07 211.31 81.44 211.03 80.62C210.75 79.8 210.6 78.84 210.56 77.76C210.53 76.96 210.52 76.1 210.52 75.17C210.52 74.24 210.53 73.34 210.56 72.47ZM219.04 72.72C219.05 72.36 219.07 71.95 219.08 71.51C219.09 71.07 219.1 70.62 219.1 70.16C219.1 69.7 219.1 69.27 219.08 68.85C219.07 68.43 219.05 68.06 219.04 67.73C219.01 67.25 218.95 66.83 218.84 66.48C218.73 66.13 218.58 65.85 218.38 65.66C218.18 65.47 217.93 65.37 217.64 65.36C217.34 65.36 217 65.46 216.6 65.69C216.2 65.92 215.85 66.21 215.56 66.56C215.26 66.91 215.02 67.3 214.82 67.72C214.62 68.14 214.47 68.59 214.36 69.07C214.25 69.55 214.18 70.05 214.16 70.56C214.13 70.91 214.12 71.3 214.11 71.73C214.11 72.16 214.11 72.6 214.11 73.06C214.11 73.52 214.11 73.96 214.11 74.39C214.11 74.82 214.13 75.21 214.16 75.55C214.21 76.51 214.43 77.21 214.83 77.63C215.22 78.06 215.82 78.04 216.62 77.58C217.42 77.12 218.01 76.45 218.4 75.57C218.79 74.69 219.01 73.74 219.08 72.71L219.04 72.72Z" fill="#455A64"/>
<path d="M234.72 62.71C234.73 63 234.74 63.38 234.74 63.84C234.74 64.3 234.74 64.69 234.72 65C234.69 65.97 234.55 66.94 234.3 67.92C234.04 68.9 233.69 69.83 233.24 70.72C232.79 71.6 232.25 72.41 231.61 73.13C230.97 73.86 230.26 74.44 229.48 74.9C228.69 75.35 227.98 75.59 227.34 75.6C226.7 75.61 226.16 75.43 225.71 75.07C225.26 74.71 224.91 74.18 224.65 73.5C224.39 72.82 224.25 72 224.22 71.07C224.21 70.78 224.2 70.4 224.2 69.94C224.2 69.48 224.2 69.09 224.22 68.78C224.23 67.82 224.37 66.85 224.63 65.87C224.89 64.89 225.24 63.95 225.7 63.07C226.16 62.18 226.7 61.37 227.34 60.63C227.98 59.9 228.69 59.3 229.48 58.85C230.27 58.4 230.98 58.17 231.61 58.17C232.25 58.17 232.79 58.35 233.25 58.71C233.71 59.07 234.06 59.59 234.31 60.28C234.56 60.97 234.7 61.78 234.73 62.72L234.72 62.71ZM227.69 68.91C227.73 69.64 227.91 70.13 228.22 70.37C228.54 70.62 228.95 70.59 229.47 70.29C229.99 69.99 230.4 69.54 230.72 68.93C231.04 68.32 231.21 67.63 231.25 66.85C231.28 66.54 231.29 66.19 231.29 65.82C231.29 65.45 231.28 65.11 231.25 64.83C231.21 64.1 231.03 63.61 230.72 63.37C230.4 63.13 229.99 63.15 229.47 63.45C228.95 63.75 228.54 64.2 228.22 64.81C227.9 65.42 227.73 66.11 227.69 66.89C227.66 67.2 227.65 67.55 227.65 67.92C227.65 68.29 227.66 68.63 227.69 68.91Z" fill="#455A64"/>
<path d="M242.6 67.32C242.23 67.54 241.9 67.67 241.61 67.71C241.33 67.75 241.08 67.75 240.88 67.69C240.67 67.63 240.5 67.54 240.36 67.41C240.22 67.28 240.1 67.16 240.01 67.03V73.36C240.01 73.58 239.96 73.8 239.86 74.01C239.76 74.23 239.63 74.38 239.49 74.46L237.06 75.87C236.92 75.95 236.8 75.94 236.69 75.84C236.59 75.74 236.54 75.58 236.54 75.36V55.85C236.54 55.63 236.59 55.41 236.69 55.2C236.79 54.98 236.92 54.83 237.06 54.75L239.4 53.4C239.54 53.32 239.66 53.33 239.77 53.43C239.87 53.53 239.92 53.69 239.92 53.91V54.59C240.04 54.33 240.16 54.04 240.3 53.75C240.43 53.45 240.6 53.16 240.8 52.88C241 52.6 241.24 52.32 241.53 52.04C241.82 51.76 242.18 51.5 242.6 51.26C243.18 50.93 243.73 50.74 244.24 50.71C244.75 50.68 245.21 50.84 245.59 51.18C245.98 51.52 246.29 52.05 246.53 52.76C246.77 53.48 246.9 54.41 246.93 55.56C246.94 55.85 246.95 56.25 246.95 56.75C246.95 57.25 246.95 57.66 246.93 57.97C246.9 59.16 246.77 60.24 246.53 61.23C246.29 62.22 245.98 63.11 245.59 63.9C245.2 64.69 244.75 65.37 244.24 65.94C243.72 66.52 243.18 66.97 242.6 67.3V67.32ZM243.47 59.62C243.51 59.04 243.51 58.49 243.47 57.95C243.43 57.28 243.28 56.76 243.03 56.39C242.77 56.02 242.34 56.01 241.74 56.36C241.46 56.52 241.21 56.73 241.01 56.99C240.8 57.25 240.63 57.53 240.5 57.84C240.36 58.15 240.26 58.46 240.18 58.78C240.1 59.1 240.05 59.42 240.03 59.73C240 60.04 239.99 60.4 239.99 60.79C239.99 61.18 240 61.53 240.03 61.81C240.05 62.09 240.11 62.35 240.18 62.58C240.26 62.81 240.36 63 240.5 63.16C240.64 63.31 240.81 63.39 241.01 63.41C241.22 63.43 241.46 63.36 241.74 63.19C242.35 62.84 242.78 62.33 243.03 61.67C243.29 61.01 243.44 60.32 243.47 59.6V59.62Z" fill="#455A64"/>
<path d="M254.46 55.54C254.46 55.32 254.41 55.18 254.32 55.12C254.22 55.06 254.06 55.05 253.83 55.11C253.6 55.17 253.29 55.26 252.91 55.4C252.53 55.54 252.06 55.69 251.49 55.86C250.51 56.15 249.76 56.03 249.23 55.5C248.7 54.97 248.44 54.03 248.44 52.69C248.44 52.02 248.55 51.33 248.77 50.63C248.99 49.93 249.29 49.25 249.69 48.58C250.08 47.92 250.56 47.3 251.11 46.73C251.66 46.16 252.28 45.68 252.96 45.29C253.63 44.9 254.25 44.67 254.81 44.59C255.38 44.51 255.86 44.55 256.28 44.69C256.69 44.84 257.02 45.1 257.26 45.46C257.5 45.83 257.63 46.25 257.66 46.73C257.67 46.94 257.62 47.16 257.52 47.38C257.41 47.6 257.28 47.75 257.14 47.83L254.84 49.16C254.7 49.24 254.59 49.26 254.5 49.21C254.42 49.16 254.32 49.11 254.2 49.06C254.08 49.01 253.93 48.99 253.75 49C253.56 49 253.3 49.11 252.97 49.3C252.67 49.47 252.43 49.68 252.23 49.92C252.03 50.16 251.93 50.43 251.93 50.73C251.93 50.95 251.96 51.1 252.03 51.18C252.1 51.26 252.22 51.28 252.42 51.24C252.61 51.2 252.88 51.12 253.23 50.99C253.58 50.87 254.03 50.71 254.6 50.53C255.77 50.15 256.62 50.27 257.16 50.88C257.69 51.49 257.96 52.39 257.96 53.58C257.96 54.25 257.85 54.95 257.63 55.66C257.41 56.37 257.09 57.07 256.66 57.76C256.24 58.45 255.72 59.1 255.11 59.71C254.5 60.32 253.82 60.84 253.04 61.29C252.27 61.74 251.59 61.99 251 62.06C250.41 62.13 249.92 62.07 249.52 61.89C249.12 61.7 248.81 61.42 248.6 61.05C248.39 60.68 248.27 60.26 248.24 59.8C248.23 59.59 248.28 59.37 248.39 59.15C248.5 58.93 248.62 58.78 248.77 58.69L251.17 57.31C251.31 57.23 251.41 57.22 251.48 57.3C251.54 57.37 251.63 57.44 251.73 57.51C251.83 57.58 251.98 57.61 252.17 57.61C252.36 57.61 252.65 57.49 253.04 57.27C253.43 57.05 253.76 56.78 254.04 56.45C254.32 56.13 254.47 55.82 254.47 55.52L254.46 55.54Z" fill="#455A64"/>
<path d="M263.17 47.95C263.17 48.17 263.12 48.39 263.02 48.6C262.92 48.82 262.79 48.97 262.65 49.05L260.22 50.46C260.08 50.54 259.96 50.53 259.85 50.43C259.75 50.33 259.7 50.17 259.7 49.95V37.13C259.7 36.91 259.75 36.69 259.85 36.48C259.95 36.26 260.08 36.11 260.22 36.03L262.65 34.62C262.79 34.54 262.91 34.55 263.02 34.65C263.12 34.75 263.17 34.91 263.17 35.13V47.95ZM263.17 54.34C263.17 54.56 263.12 54.78 263.02 54.99C262.92 55.21 262.79 55.36 262.65 55.44L260.22 56.85C260.08 56.93 259.96 56.92 259.85 56.82C259.75 56.72 259.7 56.56 259.7 56.34V53.34C259.7 53.12 259.75 52.9 259.85 52.69C259.95 52.47 260.08 52.32 260.22 52.24L262.65 50.83C262.79 50.75 262.91 50.76 263.02 50.86C263.12 50.96 263.17 51.12 263.17 51.34V54.34Z" fill="#455A64"/>
</svg>
